# xmcd
#
# Track frame offsets:
#	150
#	31163
#	53563
#	71403
#	93800
#	112803
#	132925
#	168913
#	196875
#	214768
#	238363
#	260868
#
# Disc length: 3921 seconds
#
# Revision: 1
# Processed by: cddbd v1.5.2PL0 Copyright (c) Steve Scherf et al.
# Submitted via: audiograbber 1.83.01
#
DISCID=a10f4f0c
DTITLE=Rory Gallagher - BBC Sessions 2
DYEAR=1999
DGENRE=Rock
TTITLE0=Race The Breeze (5.2.73)
TTITLE1=Hands Off  (5.2.73)
TTITLE2=Crest Of A Wave (24.11.71)
TTITLE3=Feel So Bad (10.7.72)
TTITLE4=For The Last Time (15.4.71)
TTITLE5=It Takes Time (19.7.71)
TTITLE6=Seventh Son Of 7th Son (21.2.73)
TTITLE7=Daughter Of The Everglades (21.2.73)
TTITLE8=They Don't Make Them Like You (19.6.74)
TTITLE9=Toredown (13.7.72)
TTITLE10=When My Baby She Left Me (20.3.86)
TTITLE11=Hoodoo Man (13.7.72)
EXTD=
EXTT0=
EXTT1=
EXTT2=
EXTT3=
EXTT4=
EXTT5=
EXTT6=
EXTT7=
EXTT8=
EXTT9=
EXTT10=
EXTT11=
PLAYORDER=
